<svg id="Layer_1" data-name="Layer 1" xmlns="http://www.w3.org/2000/svg" viewBox="0 0 64 64"><path d="M30.32,29c-7.78,0-22.5-1-22.5-4.65s14.72-4.64,22.5-4.64,22.5,1,22.5,4.64S38.1,29,30.32,29Zm0-7.79c-13.37,0-20.78,2-21,3.15.22,1.09,7.63,3.14,21,3.14s20.76-2.05,21-3.15C51.08,23.23,43.67,21.19,30.32,21.19Zm21,3.15h0Z"/><path d="M50.33,26.61a.72.72,0,0,1-.29-.06C46.7,25.15,39,24.24,30.33,24.24s-16.39.91-19.73,2.31A.75.75,0,1,1,10,25.17c3.51-1.48,11.48-2.43,20.31-2.43s16.78,1,20.29,2.43a.75.75,0,0,1-.29,1.44Z"/><path d="M30.61,58.11c-6.06,0-11-2-14.81-6-9-9.59-8-27.07-8-27.81a.75.75,0,1,1,1.49.1c0,.18-1,17.57,7.58,26.69,3.5,3.71,8.12,5.57,13.87,5.54S41.18,54.69,44.58,51c7.68-8.32,7-23.5,6.75-26.46,0-.14,0-.23,0-.24a.79.79,0,0,1,.8-.71.76.76,0,0,1,.7.73v.11c.32,4.31.75,19-7.14,27.59C42,56,37,58.07,30.78,58.11Z"/><path d="M50.23,43.05a.74.74,0,0,1-.74-.62.75.75,0,0,1,.61-.87c4-.67,6.34-4.31,6.87-7.4.27-1.55,0-2.83-.58-3.17s-3.06.57-3.7,1.41a.76.76,0,0,1-1,.14.74.74,0,0,1-.14-1.05c.89-1.18,4-2.73,5.63-1.81,1.22.69,1.72,2.46,1.32,4.74C57.83,38,55,42.24,50.35,43Z"/><path d="M48.8,46.71a.74.74,0,0,1-.74-.64.73.73,0,0,1,.62-.85c6-.91,8.92-4.09,10.31-6.6,1.74-3.16,1.85-6.77,1.06-8.56a4,4,0,0,0-2.62-2.29,5.73,5.73,0,0,0-4.77,1.07.75.75,0,0,1-1-.18.74.74,0,0,1,.18-1,7.15,7.15,0,0,1,6-1.29,5.46,5.46,0,0,1,3.6,3.13c1,2.17.87,6.26-1.13,9.88-1.55,2.81-4.78,6.36-11.39,7.36Z"/><path d="M30.44,62.75C17,62.75,2,59.91,2,55.83c0-3,7.61-4.46,14-5.19a.79.79,0,0,1,.8.75.71.71,0,0,1-.7.74h0C6.92,53.19,3.48,55,3.48,55.83c0,1.9,11.12,5.42,27,5.42s27-3.52,27-5.42c0-.85-3.34-2.59-12.3-3.66a.75.75,0,0,1,.18-1.49c6.21.74,13.62,2.23,13.62,5.15C58.89,59.91,43.9,62.75,30.44,62.75Z"/><path d="M29.92,17.79a.74.74,0,0,1-.75-.75,6.39,6.39,0,0,1,.57-2.79A4.9,4.9,0,0,0,30.21,12a4.9,4.9,0,0,0-.47-2.22A6.39,6.39,0,0,1,29.17,7a6.41,6.41,0,0,1,.57-2.8A4.9,4.9,0,0,0,30.21,2a.75.75,0,0,1,1.5,0,6.46,6.46,0,0,1-.58,2.8A4.85,4.85,0,0,0,30.67,7a4.91,4.91,0,0,0,.46,2.22A6.37,6.37,0,0,1,31.71,12a6.37,6.37,0,0,1-.58,2.79A4.91,4.91,0,0,0,30.67,17,.75.75,0,0,1,29.92,17.79Z"/><path d="M35.58,17.79a.75.75,0,0,1-.75-.75,3.59,3.59,0,0,1,.32-1.54,2.05,2.05,0,0,0,.2-1,2.07,2.07,0,0,0-.2-1A3.55,3.55,0,0,1,34.83,12a3.55,3.55,0,0,1,.32-1.54,2.1,2.1,0,0,0,.2-1,.75.75,0,0,1,1.5,0,3.41,3.41,0,0,1-.32,1.54,2.45,2.45,0,0,0,0,1.94,3.41,3.41,0,0,1,.32,1.54,3.44,3.44,0,0,1-.32,1.54,2.18,2.18,0,0,0-.2,1A.74.74,0,0,1,35.58,17.79Z"/><path d="M24.77,17.79A.75.75,0,0,1,24,17a3.59,3.59,0,0,1,.32-1.54,2.43,2.43,0,0,0,0-1.93A3.55,3.55,0,0,1,24,12a3.55,3.55,0,0,1,.32-1.54,2.23,2.23,0,0,0,.2-1,.75.75,0,0,1,1.5,0,3.55,3.55,0,0,1-.32,1.54,2.1,2.1,0,0,0-.2,1,2.1,2.1,0,0,0,.2,1A3.55,3.55,0,0,1,26,14.54a3.59,3.59,0,0,1-.32,1.54,2.05,2.05,0,0,0-.2,1A.75.75,0,0,1,24.77,17.79Z"/></svg>