<?xml version="1.0" ?><svg xmlns="http://www.w3.org/2000/svg" xmlns:xlink="http://www.w3.org/1999/xlink" version="1.1" viewBox="0 0 64 64" style="enable-background:new 0 0 64 64;" xml:space="preserve"><g id="cappucino"/><g id="soft_drink"/><g id="energy_drink"/><g id="milkshake"/><g id="beer"/><g id="mineral_water"/><g id="coffee_cup"><g><path d="M48,19h-0.4l-2.7-5.4C44.7,13.2,44.4,13,44,13h-9V4c0-0.6-0.4-1-1-1h-4c-0.6,0-1,0.4-1,1v9h-9c-0.4,0-0.7,0.2-0.9,0.6    L16.4,19H16c-1.7,0-3,1.3-3,3v2c0,0.6,0.4,1,1,1h2.1l1.8,33.2c0.1,1.6,1.4,2.8,3,2.8h22.2c1.6,0,2.9-1.3,3-2.8L47.9,25H50    c0.6,0,1-0.4,1-1v-2C51,20.3,49.7,19,48,19z M31,5h2v8h-2V5z M20.6,15H30h4h9.4l2,4H18.6L20.6,15z M44.1,58c0,0.5-0.5,1-1,1H20.9    c-0.5,0-1-0.4-1-1l-1.8-33h27.9L44.1,58z M49,23h-2H17h-2v-1c0-0.6,0.4-1,1-1h1h30h1c0.6,0,1,0.4,1,1V23z"/><path d="M32,52c4.4,0,8-4.5,8-10s-3.6-10-8-10c0,0,0,0,0,0c0,0,0,0,0,0c-4.4,0-7.9,4.5-7.9,10C24,47.5,27.6,52,32,52z M38,42    c0,3.4-1.6,6.3-3.8,7.4c0.5-1,0.9-2.3,0.8-3.7c-0.1-1.7-0.9-3.2-2.3-4.5c-1.5-1.4-2-3-1.4-4.9c0.3-1,0.9-1.9,1.2-2.3    C35.6,34.3,38,37.8,38,42z M29.8,34.6c-0.5,1-0.9,2.3-0.8,3.7c0.1,1.7,0.9,3.2,2.3,4.5c1.5,1.4,2,3,1.4,4.9    c-0.3,1-0.9,1.9-1.2,2.3c-3.1-0.3-5.5-3.8-5.5-8C26,38.6,27.6,35.7,29.8,34.6z"/></g></g><g id="wine"/><g id="whiskey"/><g id="kombucha"/><g id="ice_tea"/><g id="tea"/><g id="cocktail"/><g id="juice"/><g id="lemonade"/><g id="mocktail"/><g id="bubble_tea"/><g id="coffee"/><g id="water"/><g id="milk"/></svg>